<?xml version="1.0" encoding="UTF-8"?>
<svg version="1.1" xmlns="http://www.w3.org/2000/svg" width="400" height="400">
<path d="M0 0 C0.82132919 -0.00701431 1.64265839 -0.01402863 2.48887634 -0.02125549 C5.12154698 -0.03864922 7.75399278 -0.04510674 10.38671875 -0.046875 C11.73521912 -0.04788712 11.73521912 -0.04788712 13.11096191 -0.04891968 C26.00506707 -0.03351815 38.45848084 0.30960713 51.07421875 3.203125 C51.87553223 3.37473145 52.6768457 3.54633789 53.50244141 3.72314453 C90.73990626 11.76885281 123.72102441 29.76679751 151.07421875 56.203125 C152.45867187 57.51023437 152.45867187 57.51023437 153.87109375 58.84375 C186.68780047 90.54802598 210.10368438 138.57642814 211.23535156 184.5793457 C211.25483816 186.09580528 211.26862978 187.61234651 211.27734375 189.12890625 C211.28435806 189.95023544 211.29137238 190.77156464 211.29859924 191.61778259 C211.31599297 194.25045323 211.32245049 196.88289903 211.32421875 199.515625 C211.32489349 200.41462524 211.32556824 201.31362549 211.32626343 202.23986816 C211.3108619 215.13397332 210.96773662 227.58738709 208.07421875 240.203125 C207.9026123 241.00443848 207.73100586 241.80575195 207.55419922 242.63134766 C199.50663824 279.87738727 181.50433681 312.83709624 155.07421875 340.203125 C154.15461682 341.1858882 153.23534938 342.1689645 152.31640625 343.15234375 C135.914698 360.41878714 115.5338964 373.17824713 94.07421875 383.203125 C92.94757813 383.73679687 91.8209375 384.27046875 90.66015625 384.8203125 C69.48331904 394.39204454 45.42843104 400.27248599 22.1484375 400.40625 C21.32710831 400.41326431 20.50577911 400.42027863 19.65956116 400.42750549 C17.02689052 400.44489922 14.39444472 400.45135674 11.76171875 400.453125 C10.86271851 400.45379974 9.96371826 400.45447449 9.03747559 400.45516968 C-3.86037883 400.43976367 -16.30480392 400.08403108 -28.92578125 397.203125 C-29.71645996 397.03683594 -30.50713867 396.87054688 -31.32177734 396.69921875 C-50.53679891 392.63095306 -68.68411047 385.56233579 -85.92578125 376.203125 C-86.96863281 375.63980469 -88.01148437 375.07648438 -89.0859375 374.49609375 C-125.93954528 353.76290465 -154.1407734 321.27446517 -171.92578125 283.203125 C-172.45945313 282.07648438 -172.993125 280.94984375 -173.54296875 279.7890625 C-183.11470079 258.61222529 -188.99514224 234.55733729 -189.12890625 211.27734375 C-189.13592056 210.45601456 -189.14293488 209.63468536 -189.15016174 208.78846741 C-189.16755547 206.15579677 -189.17401299 203.52335097 -189.17578125 200.890625 C-189.17645599 199.99162476 -189.17713074 199.09262451 -189.17782593 198.16638184 C-189.16241992 185.26852742 -188.80668733 172.82410233 -185.92578125 160.203125 C-185.75949219 159.41244629 -185.59320313 158.62176758 -185.421875 157.80712891 C-181.35360931 138.59210734 -174.28499204 120.44479578 -164.92578125 103.203125 C-164.36246094 102.16027344 -163.79914063 101.11742188 -163.21875 100.04296875 C-137.79411499 54.85023346 -94.20309596 21.55266895 -44.71386719 6.95092773 C-30.1061026 2.86312525 -15.19559853 0.08731206 0 0 Z " fill="#FBFEFE" transform="translate(188.92578125,-0.203125)"/>
<path d="M0 0 C0.82132919 -0.00701431 1.64265839 -0.01402863 2.48887634 -0.02125549 C5.12154698 -0.03864922 7.75399278 -0.04510674 10.38671875 -0.046875 C11.73521912 -0.04788712 11.73521912 -0.04788712 13.11096191 -0.04891968 C26.00506707 -0.03351815 38.45848084 0.30960713 51.07421875 3.203125 C51.87553223 3.37473145 52.6768457 3.54633789 53.50244141 3.72314453 C90.73990626 11.76885281 123.72102441 29.76679751 151.07421875 56.203125 C152.45867187 57.51023437 152.45867187 57.51023437 153.87109375 58.84375 C186.68780047 90.54802598 210.10368438 138.57642814 211.23535156 184.5793457 C211.25483816 186.09580528 211.26862978 187.61234651 211.27734375 189.12890625 C211.28435806 189.95023544 211.29137238 190.77156464 211.29859924 191.61778259 C211.31599297 194.25045323 211.32245049 196.88289903 211.32421875 199.515625 C211.32489349 200.41462524 211.32556824 201.31362549 211.32626343 202.23986816 C211.3108619 215.13397332 210.96773662 227.58738709 208.07421875 240.203125 C207.9026123 241.00443848 207.73100586 241.80575195 207.55419922 242.63134766 C199.50663824 279.87738727 181.50433681 312.83709624 155.07421875 340.203125 C154.15461682 341.1858882 153.23534938 342.1689645 152.31640625 343.15234375 C135.914698 360.41878714 115.5338964 373.17824713 94.07421875 383.203125 C92.94757813 383.73679687 91.8209375 384.27046875 90.66015625 384.8203125 C69.48331904 394.39204454 45.42843104 400.27248599 22.1484375 400.40625 C21.32710831 400.41326431 20.50577911 400.42027863 19.65956116 400.42750549 C17.02689052 400.44489922 14.39444472 400.45135674 11.76171875 400.453125 C10.86271851 400.45379974 9.96371826 400.45447449 9.03747559 400.45516968 C-3.86037883 400.43976367 -16.30480392 400.08403108 -28.92578125 397.203125 C-29.71645996 397.03683594 -30.50713867 396.87054688 -31.32177734 396.69921875 C-50.53679891 392.63095306 -68.68411047 385.56233579 -85.92578125 376.203125 C-86.96863281 375.63980469 -88.01148437 375.07648438 -89.0859375 374.49609375 C-125.93954528 353.76290465 -154.1407734 321.27446517 -171.92578125 283.203125 C-172.45945313 282.07648438 -172.993125 280.94984375 -173.54296875 279.7890625 C-183.11470079 258.61222529 -188.99514224 234.55733729 -189.12890625 211.27734375 C-189.13592056 210.45601456 -189.14293488 209.63468536 -189.15016174 208.78846741 C-189.16755547 206.15579677 -189.17401299 203.52335097 -189.17578125 200.890625 C-189.17645599 199.99162476 -189.17713074 199.09262451 -189.17782593 198.16638184 C-189.16241992 185.26852742 -188.80668733 172.82410233 -185.92578125 160.203125 C-185.75949219 159.41244629 -185.59320313 158.62176758 -185.421875 157.80712891 C-181.35360931 138.59210734 -174.28499204 120.44479578 -164.92578125 103.203125 C-164.36246094 102.16027344 -163.79914063 101.11742188 -163.21875 100.04296875 C-137.79411499 54.85023346 -94.20309596 21.55266895 -44.71386719 6.95092773 C-30.1061026 2.86312525 -15.19559853 0.08731206 0 0 Z M-128.92578125 79.203125 C-157.67113775 112.64014283 -173.4289708 156.12888079 -173.30078125 200.140625 C-173.30023743 200.85279175 -173.2996936 201.5649585 -173.2991333 202.29870605 C-173.12215415 253.1582652 -151.31899528 299.34719427 -115.56201172 334.86962891 C-82.00410102 367.25653658 -35.33858907 384.7131259 11.01171875 384.578125 C11.7238855 384.57758118 12.43605225 384.57703735 13.1697998 384.57647705 C59.3578423 384.41575367 103.21481039 366.36760086 137.07421875 335.203125 C137.62174805 334.70087402 138.16927734 334.19862305 138.73339844 333.68115234 C171.30882578 303.41597044 192.94975508 258.33860216 195.2512207 213.77587891 C196.19381919 158.45924258 180.28613342 109.82905928 141.67431641 69.52001953 C109.22559936 36.42683939 62.69968886 16.33893102 16.37988281 15.82275391 C15.00716037 15.82230124 13.63443549 15.82414133 12.26171875 15.828125 C11.54866577 15.82866882 10.83561279 15.82921265 10.10095215 15.82977295 C-43.77762895 16.01698657 -92.98735267 39.52449797 -128.92578125 79.203125 Z " fill="#030303" transform="translate(188.92578125,-0.203125)"/>
</svg>
